<svg width="42" height="42" viewBox="0 0 42 42" fill="none" xmlns="http://www.w3.org/2000/svg">
<path d="M34.0331 6.03538H29.5263V4.10391C29.5263 3.93316 29.4585 3.7694 29.3378 3.64866C29.217 3.52791 29.0533 3.46008 28.8825 3.46008C28.7118 3.46008 28.548 3.52791 28.4273 3.64866C28.3065 3.7694 28.2387 3.93316 28.2387 4.10391V6.03538H14.0745V4.10391C14.0745 3.93316 14.0067 3.7694 13.886 3.64866C13.7652 3.52791 13.6015 3.46008 13.4307 3.46008C13.26 3.46008 13.0962 3.52791 12.9755 3.64866C12.8547 3.7694 12.7869 3.93316 12.7869 4.10391V6.03538H8.28011C7.76785 6.03538 7.27657 6.23888 6.91435 6.6011C6.55213 6.96332 6.34863 7.4546 6.34863 7.96686V33.7199C6.34863 34.2321 6.55213 34.7234 6.91435 35.0856C7.27657 35.4479 7.76785 35.6513 8.28011 35.6513H34.0331C34.5454 35.6513 35.0367 35.4479 35.3989 35.0856C35.7611 34.7234 35.9646 34.2321 35.9646 33.7199V7.96686C35.9646 7.4546 35.7611 6.96332 35.3989 6.6011C35.0367 6.23888 34.5454 6.03538 34.0331 6.03538ZM8.28011 7.32303H12.7869V9.25451C12.7869 9.42526 12.8547 9.58902 12.9755 9.70976C13.0962 9.8305 13.26 9.89834 13.4307 9.89834C13.6015 9.89834 13.7652 9.8305 13.886 9.70976C14.0067 9.58902 14.0745 9.42526 14.0745 9.25451V7.32303H28.2387V9.25451C28.2387 9.42526 28.3065 9.58902 28.4273 9.70976C28.548 9.8305 28.7118 9.89834 28.8825 9.89834C29.0533 9.89834 29.217 9.8305 29.3378 9.70976C29.4585 9.58902 29.5263 9.42526 29.5263 9.25451V7.32303H34.0331C34.2039 7.32303 34.3676 7.39087 34.4884 7.51161C34.6091 7.63235 34.6769 7.79611 34.6769 7.96686V13.7613H7.63628V7.96686C7.63628 7.79611 7.70411 7.63235 7.82486 7.51161C7.9456 7.39087 8.10936 7.32303 8.28011 7.32303ZM34.0331 34.3637H8.28011C8.10936 34.3637 7.9456 34.2959 7.82486 34.1751C7.70411 34.0544 7.63628 33.8906 7.63628 33.7199V15.0489H34.6769V33.7199C34.6769 33.8906 34.6091 34.0544 34.4884 34.1751C34.3676 34.2959 34.2039 34.3637 34.0331 34.3637ZM17.9375 19.5557V29.8569C17.9375 30.0277 17.8697 30.1914 17.7489 30.3122C17.6282 30.4329 17.4644 30.5007 17.2937 30.5007C17.1229 30.5007 16.9591 30.4329 16.8384 30.3122C16.7177 30.1914 16.6498 30.0277 16.6498 29.8569V20.5971L15.0065 21.4196C14.8536 21.496 14.6767 21.5086 14.5146 21.4545C14.3525 21.4005 14.2185 21.2843 14.1421 21.1315C14.0657 20.9787 14.0532 20.8017 14.1072 20.6396C14.1612 20.4775 14.2774 20.3436 14.4302 20.2671L17.0056 18.9795C17.1037 18.9304 17.2129 18.9071 17.3226 18.9121C17.4323 18.917 17.5389 18.9499 17.6323 19.0077C17.7256 19.0654 17.8027 19.1461 17.8561 19.242C17.9096 19.3379 17.9376 19.4459 17.9375 19.5557ZM27.5949 24.0625L23.7319 29.2131H27.5949C27.7656 29.2131 27.9294 29.2809 28.0501 29.4017C28.1709 29.5224 28.2387 29.6862 28.2387 29.8569C28.2387 30.0277 28.1709 30.1914 28.0501 30.3122C27.9294 30.4329 27.7656 30.5007 27.5949 30.5007H22.4443C22.3247 30.5007 22.2075 30.4674 22.1058 30.4046C22.0041 30.3417 21.9219 30.2518 21.8684 30.1448C21.8149 30.0379 21.7923 29.9182 21.803 29.7991C21.8138 29.68 21.8575 29.5663 21.9292 29.4706L26.5615 23.2947C26.8157 22.9602 26.9526 22.5512 26.951 22.131C26.9515 21.7054 26.8114 21.2916 26.5525 20.9538C26.2936 20.6161 25.9304 20.3733 25.5193 20.2632C25.1082 20.153 24.6723 20.1818 24.2792 20.3449C23.8861 20.5081 23.5579 20.7964 23.3456 21.1653C23.2565 21.3054 23.1167 21.4057 22.9555 21.4452C22.7942 21.4847 22.6239 21.4604 22.4801 21.3773C22.3363 21.2942 22.2302 21.1587 22.184 20.9993C22.1377 20.8398 22.1548 20.6686 22.2318 20.5215C22.5861 19.9078 23.1331 19.4282 23.7877 19.157C24.4424 18.8859 25.1683 18.8383 25.8527 19.0217C26.5372 19.2051 27.142 19.6093 27.5734 20.1714C28.0048 20.7336 28.2387 21.4224 28.2387 22.131C28.2412 22.8279 28.015 23.5064 27.5949 24.0625Z" fill="black"/>
</svg>
