<svg width="91" height="16" viewBox="0 0 91 16" fill="none" xmlns="http://www.w3.org/2000/svg">
<path d="M7.52878 0L9.21909 5.20226H14.6891L10.2638 8.41743L11.9541 13.6197L7.52878 10.4045L3.10347 13.6197L4.79379 8.41743L0.368484 5.20226H5.83846L7.52878 0Z" fill="#98C4ED"/>
<path d="M26.5146 0L28.2049 5.20226H33.6749L29.2496 8.41743L30.9399 13.6197L26.5146 10.4045L22.0893 13.6197L23.7796 8.41743L19.3543 5.20226H24.8243L26.5146 0Z" fill="#98C4ED"/>
<path d="M45.5 0L47.1903 5.20226H52.6603L48.235 8.41743L49.9253 13.6197L45.5 10.4045L41.0747 13.6197L42.765 8.41743L38.3397 5.20226H43.8097L45.5 0Z" fill="#98C4ED"/>
<path d="M64.4858 0L66.1761 5.20226H71.6461L67.2208 8.41743L68.9111 13.6197L64.4858 10.4045L60.0605 13.6197L61.7508 8.41743L57.3255 5.20226H62.7955L64.4858 0Z" fill="#98C4ED"/>
<path d="M83.4712 0L85.1615 5.20226H90.6315L86.2061 8.41743L87.8965 13.6197L83.4712 10.4045L79.0459 13.6197L80.7362 8.41743L76.3109 5.20226H81.7808L83.4712 0Z" fill="#98C4ED"/>
</svg>
