<svg width="19" height="19" viewBox="0 0 19 19" fill="none" xmlns="http://www.w3.org/2000/svg">
<path fill-rule="evenodd" clip-rule="evenodd" d="M14.8783 4.12894C15.0619 4.05239 15.2629 4.02598 15.4604 4.05248C15.6578 4.07898 15.8445 4.15741 16.0009 4.27961C16.1574 4.40181 16.2779 4.56331 16.35 4.7473C16.422 4.9313 16.443 5.13106 16.4106 5.32579L14.7252 15.4519C14.5617 16.4287 13.4797 16.9888 12.5753 16.5023C11.8188 16.0952 10.6952 15.4681 9.6845 14.8137C9.17917 14.4862 7.63121 13.4373 7.82146 12.6909C7.98495 12.0527 10.5859 9.65462 12.0722 8.22885C12.6556 7.6687 12.3895 7.34557 11.7006 7.86082C9.98919 9.14011 7.24329 11.0855 6.33518 11.6332C5.53408 12.116 5.11643 12.1985 4.61704 12.116C3.70596 11.9659 2.86101 11.7333 2.17138 11.4499C1.23948 11.0671 1.28481 9.79815 2.17063 9.42864L14.8783 4.12894Z" fill="#98C4ED"/>
</svg>
