<svg width="37" height="37" viewBox="0 0 37 37" fill="none" xmlns="http://www.w3.org/2000/svg">
<g clip-path="url(#clip0_26_430)">
<path d="M24.9811 15.1823C24.9811 15.3302 24.9224 15.4722 24.8177 15.5768C24.7131 15.6814 24.5711 15.7402 24.4232 15.7402H13.2635C13.1155 15.7402 12.9736 15.6814 12.869 15.5768C12.7643 15.4722 12.7055 15.3302 12.7055 15.1823C12.7055 15.0343 12.7643 14.8923 12.869 14.7877C12.9736 14.6831 13.1155 14.6243 13.2635 14.6243H24.4232C24.5711 14.6243 24.7131 14.6831 24.8177 14.7877C24.9224 14.8923 24.9811 15.0343 24.9811 15.1823ZM24.4232 19.0881H13.2635C13.1155 19.0881 12.9736 19.1469 12.869 19.2516C12.7643 19.3562 12.7055 19.4981 12.7055 19.6461C12.7055 19.7941 12.7643 19.936 12.869 20.0407C12.9736 20.1453 13.1155 20.2041 13.2635 20.2041H24.4232C24.5711 20.2041 24.7131 20.1453 24.8177 20.0407C24.9224 19.936 24.9811 19.7941 24.9811 19.6461C24.9811 19.4981 24.9224 19.3562 24.8177 19.2516C24.7131 19.1469 24.5711 19.0881 24.4232 19.0881ZM36.1408 15.1823V18.5301C36.1408 19.566 35.7293 20.5595 34.9968 21.292C34.2643 22.0245 33.2708 22.436 32.2349 22.436H31.1468C30.3322 24.4782 28.5899 26.2735 25.9855 27.7173C23.1217 29.309 20.0514 30.0288 19.1781 30.2129C18.9545 30.2594 18.7238 30.2594 18.5002 30.2129C17.6269 30.0288 14.5566 29.309 11.6928 27.7173C9.0926 26.2735 7.35031 24.4782 6.53147 22.436H5.45177C4.41587 22.436 3.4224 22.0245 2.6899 21.292C1.95741 20.5595 1.5459 19.566 1.5459 18.5301V15.1823C1.5459 14.1463 1.95741 13.1529 2.6899 12.4204C3.4224 11.6879 4.41587 11.2764 5.45177 11.2764H6.01812C6.04681 10.9601 6.16486 10.6585 6.35851 10.4068C6.55216 10.1551 6.81342 9.96371 7.11177 9.85492L18.2714 5.79699C18.6409 5.66268 19.0458 5.66268 19.4153 5.79699L30.5749 9.85492C30.8733 9.96371 31.1345 10.1551 31.3282 10.4068C31.5218 10.6585 31.6399 10.9601 31.6686 11.2764H32.2349C33.2708 11.2764 34.2643 11.6879 34.9968 12.4204C35.7293 13.1529 36.1408 14.1463 36.1408 15.1823ZM6.19389 21.3201C6.07122 20.7776 6.00946 20.2232 6.00975 19.667V12.3923H5.45177C4.71184 12.3923 4.00222 12.6863 3.47901 13.2095C2.9558 13.7327 2.66186 14.4423 2.66186 15.1823V18.5301C2.66186 19.2701 2.9558 19.9797 3.47901 20.5029C4.00222 21.0261 4.71184 21.3201 5.45177 21.3201H6.19389ZM30.2094 21.7762C30.2191 21.7278 30.2351 21.6809 30.2569 21.6367C30.4602 21 30.5628 20.3354 30.561 19.667V11.4284C30.561 11.3139 30.5258 11.2022 30.4602 11.1083C30.3946 11.0145 30.3017 10.9431 30.1941 10.9039L19.0344 6.846C18.911 6.801 18.7757 6.801 18.6522 6.846L7.49259 10.9039C7.38501 10.9431 7.2921 11.0145 7.22647 11.1083C7.16084 11.2022 7.12566 11.3139 7.12572 11.4284V19.667C7.12368 20.335 7.22629 20.9991 7.42982 21.6353C7.45131 21.6797 7.46724 21.7265 7.47725 21.7748C8.13845 23.6831 9.73149 25.3473 12.2396 26.7408C14.9668 28.2558 17.899 28.9435 18.7331 29.1123C18.8058 29.1276 18.8809 29.1276 18.9535 29.1123C19.7905 28.9365 22.7199 28.2488 25.4471 26.7408C27.9566 25.3487 29.5496 23.6915 30.2094 21.7762ZM35.0248 15.1823C35.0248 14.4423 34.7309 13.7327 34.2077 13.2095C33.6845 12.6863 32.9748 12.3923 32.2349 12.3923H31.6769V19.667C31.6772 20.2232 31.6154 20.7776 31.4928 21.3201H32.2349C32.9748 21.3201 33.6845 21.0261 34.2077 20.5029C34.7309 19.9797 35.0248 19.2701 35.0248 18.5301V15.1823Z" fill="black"/>
</g>
<defs>
<clipPath id="clip0_26_430">
<rect width="35.7108" height="35.7108" fill="white" transform="translate(0.987793 0.674713)"/>
</clipPath>
</defs>
</svg>
