<svg width="38" height="38" viewBox="0 0 38 38" fill="none" xmlns="http://www.w3.org/2000/svg">
<path d="M33.8049 20.3758C33.4688 19.1187 32.8352 17.961 31.9577 17.0002C31.0801 16.0395 29.9843 15.3039 28.7628 14.8557C27.5412 14.4074 26.2298 14.2595 24.9391 14.4246C23.6484 14.5896 22.4163 15.0627 21.3469 15.804C21.1377 15.6687 20.9166 15.5528 20.6863 15.4577L23.1881 5.47104C23.2176 5.35335 23.2094 5.22937 23.1647 5.11657C23.12 5.00377 23.041 4.90785 22.9389 4.84234C22.0046 4.25309 20.9598 3.86086 19.8686 3.68968C18.7773 3.51851 17.6626 3.572 16.5927 3.84688C15.5229 4.12176 14.5205 4.61224 13.6469 5.28824C12.7733 5.96425 12.0469 6.81154 11.5124 7.77819C10.9779 8.74483 10.6464 9.81046 10.5382 10.9098C10.4301 12.009 10.5476 13.1188 10.8836 14.1711C11.2195 15.2234 11.7668 16.196 12.4919 17.0292C13.2171 17.8625 14.1047 18.5389 15.1005 19.017C15.1005 19.0836 15.1005 19.1502 15.1005 19.2169C15.1005 19.3991 15.1131 19.5811 15.1382 19.7615L5.23695 22.5892C5.11995 22.6222 5.01629 22.6912 4.94064 22.7863C4.86499 22.8815 4.82117 22.998 4.8154 23.1194C4.73196 24.9661 5.28173 26.7859 6.37368 28.2775C7.46564 29.7691 9.03428 30.843 10.8199 31.3214C11.5092 31.5064 12.2197 31.6004 12.9334 31.601C14.0533 31.5979 15.1604 31.3632 16.1853 30.9116C17.2101 30.4601 18.1305 29.8016 18.8887 28.9773C19.6468 28.153 20.2263 27.1809 20.5908 26.122C20.9552 25.063 21.0968 23.9402 21.0065 22.8239C21.2275 22.7097 21.4374 22.5754 21.6337 22.4226L29.0347 29.5846C29.1436 29.6904 29.2898 29.7491 29.4417 29.7482C29.5345 29.7478 29.6258 29.7255 29.7083 29.6831C31.3498 28.8311 32.6509 27.4437 33.396 25.751C34.141 24.0582 34.2853 22.1617 33.8049 20.3758ZM19.1566 22.1141C18.5836 22.1141 18.0234 21.9442 17.547 21.6258C17.0706 21.3075 16.6992 20.855 16.4799 20.3256C16.2607 19.7962 16.2033 19.2137 16.3151 18.6516C16.4269 18.0896 16.7028 17.5734 17.108 17.1682C17.5132 16.763 18.0294 16.4871 18.5914 16.3753C19.1534 16.2635 19.7359 16.3209 20.2653 16.5402C20.7947 16.7595 21.2472 17.1308 21.5656 17.6073C21.8839 18.0837 22.0538 18.6439 22.0538 19.2169C22.0538 19.9853 21.7486 20.7222 21.2053 21.2655C20.6619 21.8088 19.925 22.1141 19.1566 22.1141ZM11.6239 11.6841C11.6236 10.4719 11.9403 9.28068 12.5424 8.22861C13.1446 7.17653 14.0113 6.30016 15.0567 5.68642C16.102 5.07267 17.2897 4.74287 18.5018 4.72974C19.714 4.71661 20.9085 5.0206 21.9669 5.61155L19.5695 15.181C19.4333 15.168 19.2957 15.1608 19.1566 15.1608C18.3227 15.1619 17.5092 15.4195 16.8267 15.8986C16.1441 16.3778 15.6254 17.0553 15.341 17.8392C14.2174 17.2517 13.2767 16.3671 12.6213 15.2817C11.9658 14.1964 11.6208 12.952 11.6239 11.6841ZM16.4043 29.502C15.3546 30.1081 14.1648 30.4294 12.9527 30.4339C11.7406 30.4384 10.5484 30.126 9.49435 29.5277C8.44025 28.9293 7.56087 28.0658 6.94341 27.0228C6.32596 25.9798 5.99187 24.7935 5.97429 23.5815L15.4627 20.8726C15.7817 21.5861 16.3 22.1922 16.9554 22.618C17.6107 23.0438 18.3751 23.2713 19.1566 23.273C19.3965 23.2723 19.636 23.251 19.8722 23.2092C19.925 24.475 19.6296 25.731 19.0181 26.8405C18.4066 27.95 17.5026 28.8706 16.4043 29.502ZM31.9913 25.9587C31.3973 26.9871 30.5494 27.846 29.5286 28.4532L22.4305 21.5911C22.9621 20.8585 23.2325 19.9687 23.1984 19.0641C23.1642 18.1595 22.8275 17.2926 22.2421 16.6021C23.5564 15.7705 25.1115 15.4034 26.6589 15.5596C28.2063 15.7159 29.6566 16.3864 30.7781 17.4639C31.8995 18.5415 32.6273 19.964 32.8452 21.5039C33.063 23.0438 32.7583 24.6123 31.9797 25.9587H31.9913Z" fill="black"/>
</svg>
