<svg width="36" height="36" viewBox="0 0 36 36" fill="none" xmlns="http://www.w3.org/2000/svg">
<path d="M27.8137 9.03577H5.27977C4.5683 9.03577 3.88597 9.3184 3.38288 9.82148C2.8798 10.3246 2.59717 11.0069 2.59717 11.7184V24.5949C2.59717 25.3063 2.8798 25.9887 3.38288 26.4918C3.88597 26.9949 4.5683 27.2775 5.27977 27.2775H27.8137C28.5251 27.2775 29.2075 26.9949 29.7105 26.4918C30.2136 25.9887 30.4963 25.3063 30.4963 24.5949V11.7184C30.4963 11.0069 30.2136 10.3246 29.7105 9.82148C29.2075 9.3184 28.5251 9.03577 27.8137 9.03577ZM29.4232 24.5949C29.4232 25.0218 29.2536 25.4312 28.9518 25.733C28.6499 26.0349 28.2405 26.2044 27.8137 26.2044H5.27977C4.85289 26.2044 4.44349 26.0349 4.14164 25.733C3.83979 25.4312 3.67021 25.0218 3.67021 24.5949V11.7184C3.67021 11.2915 3.83979 10.8821 4.14164 10.5802C4.44349 10.2784 4.85289 10.1088 5.27977 10.1088H27.8137C28.2405 10.1088 28.6499 10.2784 28.9518 10.5802C29.2536 10.8821 29.4232 11.2915 29.4232 11.7184V24.5949ZM34.7884 13.8645V22.4488C34.7884 22.5911 34.7319 22.7276 34.6313 22.8282C34.5307 22.9288 34.3942 22.9853 34.2519 22.9853C34.1096 22.9853 33.9732 22.9288 33.8725 22.8282C33.7719 22.7276 33.7154 22.5911 33.7154 22.4488V13.8645C33.7154 13.7222 33.7719 13.5857 33.8725 13.4851C33.9732 13.3845 34.1096 13.3279 34.2519 13.3279C34.3942 13.3279 34.5307 13.3845 34.6313 13.4851C34.7319 13.5857 34.7884 13.7222 34.7884 13.8645ZM19.1488 17.875C19.197 17.9527 19.2245 18.0414 19.2287 18.1327C19.2329 18.224 19.2137 18.3149 19.173 18.3967L17.0269 22.6889C16.9823 22.778 16.9137 22.853 16.8289 22.9053C16.7441 22.9577 16.6464 22.9854 16.5467 22.9853C16.4635 22.9849 16.3814 22.9656 16.3066 22.929C16.2435 22.8975 16.1873 22.8539 16.1411 22.8006C16.0948 22.7474 16.0596 22.6855 16.0373 22.6186C16.015 22.5517 16.0061 22.4811 16.0111 22.4107C16.0161 22.3404 16.035 22.2718 16.0665 22.2087L17.825 18.6931H14.4006C14.3091 18.6932 14.2191 18.6699 14.1392 18.6254C14.0593 18.5808 13.992 18.5166 13.9439 18.4388C13.8958 18.361 13.8684 18.2721 13.8643 18.1807C13.8602 18.0893 13.8795 17.9984 13.9204 17.9165L16.0665 13.6244C16.1302 13.497 16.2419 13.4002 16.3769 13.3551C16.512 13.3101 16.6595 13.3206 16.7868 13.3843C16.9142 13.4479 17.011 13.5596 17.056 13.6947C17.1011 13.8298 17.0906 13.9772 17.0269 14.1045L15.2685 17.6201H18.6928C18.7842 17.6202 18.8741 17.6437 18.9539 17.6883C19.0337 17.7329 19.1008 17.7971 19.1488 17.875Z" fill="black"/>
</svg>
