<svg width="32" height="32" viewBox="0 0 32 32" fill="none" xmlns="http://www.w3.org/2000/svg">
<path d="M28.8827 16.9401C28.586 15.8298 28.0295 14.8059 27.2593 13.953C26.489 13.1 25.527 12.4424 24.4525 12.0344C23.3781 11.6263 22.2221 11.4796 21.0798 11.6062C19.9375 11.7328 18.8417 12.1292 17.8827 12.7626C17.7965 12.7114 17.7065 12.6626 17.6152 12.6189L19.7227 4.20386C19.7609 4.05153 19.7504 3.89105 19.6925 3.74505C19.6346 3.59906 19.5324 3.4749 19.4002 3.39011C18.5711 2.86115 17.643 2.50641 16.6725 2.34748C15.7019 2.18856 14.7091 2.22876 13.7546 2.46565C12.8001 2.70254 11.9037 3.13116 11.1201 3.72544C10.3364 4.31971 9.6819 5.06721 9.19629 5.92246C8.71069 6.7777 8.40417 7.7228 8.29538 8.70026C8.18659 9.67771 8.27782 10.6671 8.5635 11.6082C8.84918 12.5492 9.32335 13.4224 9.95715 14.1744C10.591 14.9264 11.3711 15.5416 12.2502 15.9826V16.0001C12.2502 16.0964 12.2502 16.1926 12.2627 16.2876L3.92148 18.6701C3.76993 18.7127 3.63562 18.8019 3.53758 18.9251C3.43954 19.0482 3.38274 19.1991 3.37523 19.3564C3.33845 20.3351 3.50038 21.3112 3.85125 22.2257C4.20212 23.1402 4.73466 23.9741 5.41671 24.6771C6.09876 25.3801 6.91618 25.9375 7.81964 26.3159C8.72309 26.6942 9.69384 26.8856 10.6733 26.8784C11.6527 26.8712 12.6206 26.6656 13.5184 26.2741C14.4162 25.8825 15.2254 25.3131 15.897 24.6002C16.5687 23.8873 17.0889 23.0457 17.4264 22.1261C17.7638 21.2066 17.9114 20.2282 17.8602 19.2501C17.9477 19.2001 18.034 19.1464 18.1177 19.0889L24.3515 25.1251C24.4647 25.2343 24.6094 25.3051 24.7651 25.3275C24.9207 25.3499 25.0795 25.3229 25.219 25.2501C26.6856 24.4892 27.8483 23.2502 28.5146 21.7383C29.1809 20.2264 29.3108 18.5322 28.8827 16.9364V16.9401ZM13.7502 16.0001C13.7502 15.5551 13.8822 15.1201 14.1294 14.7501C14.3767 14.3801 14.7281 14.0917 15.1392 13.9214C15.5503 13.7511 16.0027 13.7065 16.4392 13.7933C16.8756 13.8802 17.2766 14.0944 17.5912 14.4091C17.9059 14.7238 18.1202 15.1247 18.207 15.5612C18.2938 15.9976 18.2493 16.45 18.079 16.8611C17.9087 17.2723 17.6203 17.6237 17.2503 17.8709C16.8803 18.1181 16.4452 18.2501 16.0002 18.2501C15.4035 18.2501 14.8312 18.0131 14.4092 17.5911C13.9873 17.1691 13.7502 16.5968 13.7502 16.0001ZM9.75023 9.50011C9.74992 8.51379 10.0033 7.54398 10.4861 6.6839C10.9689 5.82381 11.6647 5.10236 12.5069 4.5889C13.349 4.07544 14.309 3.78723 15.2947 3.75198C16.2804 3.71673 17.2586 3.93562 18.1352 4.38761L16.1652 12.2501C16.1102 12.2501 16.0552 12.2501 16.0002 12.2501C15.2788 12.2505 14.5728 12.4589 13.9668 12.8505C13.3609 13.242 12.8807 13.8 12.584 14.4576C11.7194 13.9512 11.0028 13.2269 10.5056 12.357C10.0083 11.4871 9.7479 10.5021 9.75023 9.50011ZM13.5002 24.6626C12.6461 25.1572 11.679 25.4236 10.6921 25.4362C9.70523 25.4488 8.73169 25.2071 7.86524 24.7344C6.99878 24.2618 6.26858 23.5741 5.74491 22.7374C5.22124 21.9008 4.92174 20.9435 4.87523 19.9576L12.674 17.7301C12.9905 18.3389 13.4681 18.8492 14.0546 19.2054C14.6411 19.5615 15.3141 19.75 16.0002 19.7501C16.1255 19.7503 16.2506 19.744 16.3752 19.7314C16.3687 20.7329 16.0998 21.7152 15.5953 22.5804C15.0909 23.4456 14.3685 24.1635 13.5002 24.6626ZM26.8627 21.6926C26.4036 22.4873 25.7607 23.1603 24.9877 23.6551L19.159 18.0151C19.5632 17.3837 19.7682 16.6454 19.7475 15.896C19.7268 15.1466 19.4812 14.4207 19.0427 13.8126C20.1403 13.1911 21.4118 12.9477 22.6613 13.1199C23.9108 13.2922 25.069 13.8705 25.9575 14.7658C26.8459 15.6611 27.4154 16.8237 27.5781 18.0745C27.7407 19.3253 27.4876 20.5948 26.8577 21.6876L26.8627 21.6926Z" fill="#98C4ED"/>
</svg>
