<svg width="36" height="36" viewBox="0 0 36 36" fill="none" xmlns="http://www.w3.org/2000/svg">
<path d="M34.2079 10.9029L30.8278 12L32.9108 14.8758C32.9546 14.9326 32.9865 14.9976 33.0047 15.067C33.0228 15.1364 33.0269 15.2087 33.0167 15.2797C33.0064 15.3506 32.9821 15.4188 32.945 15.4802C32.908 15.5416 32.859 15.595 32.801 15.6371C32.743 15.6793 32.6771 15.7093 32.6073 15.7256C32.5374 15.7418 32.465 15.7439 32.3944 15.7317C32.3237 15.7195 32.2562 15.6933 32.1958 15.6545C32.1355 15.6158 32.0835 15.5654 32.043 15.5062L29.96 12.6318L27.8716 15.5062C27.8218 15.5748 27.7564 15.6306 27.6809 15.6691C27.6053 15.7076 27.5217 15.7276 27.437 15.7275C27.3381 15.7274 27.2412 15.6999 27.157 15.6481C27.0728 15.5964 27.0045 15.5224 26.9597 15.4343C26.9149 15.3461 26.8953 15.2474 26.903 15.1488C26.9108 15.0503 26.9457 14.9558 27.0037 14.8758L29.0921 12L25.7121 10.9029C25.645 10.8811 25.583 10.8464 25.5294 10.8006C25.4758 10.7549 25.4317 10.699 25.3997 10.6362C25.3677 10.5735 25.3484 10.505 25.3428 10.4348C25.3373 10.3645 25.3456 10.2939 25.3673 10.2268C25.3891 10.1598 25.4238 10.0977 25.4696 10.0441C25.5153 9.99055 25.5712 9.94649 25.634 9.91448C25.6967 9.88247 25.7652 9.86314 25.8354 9.85759C25.9057 9.85204 25.9763 9.86038 26.0434 9.88213L29.4234 10.9793V7.4262C29.4234 7.28391 29.48 7.14744 29.5806 7.04683C29.6812 6.94621 29.8177 6.88968 29.96 6.88968C30.1023 6.88968 30.2387 6.94621 30.3393 7.04683C30.44 7.14744 30.4965 7.28391 30.4965 7.4262V10.9793L33.8766 9.88213C33.9436 9.86038 34.0142 9.85204 34.0845 9.85759C34.1547 9.86314 34.2232 9.88247 34.286 9.91448C34.3487 9.94649 34.4046 9.99055 34.4503 10.0441C34.4961 10.0977 34.5308 10.1598 34.5526 10.2268C34.5743 10.2939 34.5827 10.3645 34.5771 10.4348C34.5716 10.505 34.5522 10.5735 34.5202 10.6362C34.4882 10.699 34.4442 10.7549 34.3906 10.8006C34.337 10.8464 34.2749 10.8811 34.2079 10.9029ZM20.8391 25.6679C20.8392 26.3878 20.6323 27.0926 20.2432 27.6983C19.8541 28.3039 19.2991 28.785 18.6443 29.0842C17.9896 29.3834 17.2626 29.4881 16.55 29.3859C15.8374 29.2836 15.1692 28.9787 14.625 28.5074C14.0807 28.0362 13.6834 27.4184 13.4803 26.7278C13.2773 26.0371 13.277 25.3026 13.4795 24.6118C13.682 23.921 14.0788 23.3029 14.6226 22.8312C15.1665 22.3595 15.8344 22.054 16.5469 21.9512V17.0836C16.5469 16.9413 16.6035 16.8048 16.7041 16.7042C16.8047 16.6036 16.9412 16.5471 17.0835 16.5471C17.2258 16.5471 17.3622 16.6036 17.4628 16.7042C17.5635 16.8048 17.62 16.9413 17.62 17.0836V21.9512C18.5138 22.0802 19.3311 22.5269 19.9223 23.2095C20.5136 23.8921 20.839 24.7649 20.8391 25.6679ZM19.7661 25.6679C19.7661 25.1374 19.6087 24.6187 19.314 24.1775C19.0192 23.7364 18.6002 23.3926 18.1101 23.1895C17.6199 22.9865 17.0805 22.9334 16.5601 23.0369C16.0397 23.1404 15.5617 23.3959 15.1866 23.771C14.8114 24.1462 14.5559 24.6242 14.4524 25.1446C14.3489 25.6649 14.402 26.2043 14.6051 26.6945C14.8081 27.1847 15.1519 27.6037 15.5931 27.8984C16.0342 28.1932 16.5529 28.3505 17.0835 28.3505C17.7949 28.3505 18.4773 28.0679 18.9804 27.5648C19.4834 27.0617 19.7661 26.3794 19.7661 25.6679ZM25.1313 25.6679C25.1313 27.0397 24.7806 28.3888 24.1126 29.5869C23.4446 30.7851 22.4814 31.7926 21.3145 32.5138C20.1475 33.235 18.8156 33.6459 17.4452 33.7076C16.0748 33.7693 14.7113 33.4796 13.4844 32.8661C12.2574 32.2526 11.2076 31.3357 10.4347 30.2023C9.66175 29.069 9.19136 27.7569 9.06817 26.3907C8.94497 25.0244 9.17306 23.6493 9.73078 22.396C10.2885 21.1427 11.1573 20.0528 12.2548 19.2297V7.4262C12.2548 6.14556 12.7635 4.91736 13.6691 4.01181C14.5746 3.10625 15.8028 2.59752 17.0835 2.59752C18.3641 2.59752 19.5923 3.10625 20.4979 4.01181C21.4034 4.91736 21.9122 6.14556 21.9122 7.4262V19.2297C22.9112 19.9797 23.7221 20.9519 24.2808 22.0693C24.8395 23.1866 25.1307 24.4186 25.1313 25.6679ZM24.0582 25.6679C24.0576 24.5435 23.7855 23.4358 23.265 22.4392C22.7444 21.4425 21.9909 20.5862 21.0685 19.9432C20.9969 19.8933 20.9386 19.8266 20.8986 19.749C20.8587 19.6714 20.8382 19.5852 20.8391 19.4979V7.4262C20.8391 6.43015 20.4434 5.47488 19.7391 4.77056C19.0348 4.06624 18.0795 3.67056 17.0835 3.67056C16.0874 3.67056 15.1321 4.06624 14.4278 4.77056C13.7235 5.47488 13.3278 6.43015 13.3278 7.4262V19.4979C13.3278 19.5843 13.307 19.6694 13.267 19.746C13.2271 19.8226 13.1693 19.8884 13.0985 19.9379C12.1143 20.623 11.3235 21.5502 10.8022 22.6301C10.2809 23.7099 10.0469 24.906 10.1226 26.1027C10.1984 27.2994 10.5813 28.4563 11.2346 29.4619C11.8878 30.4674 12.7893 31.2875 13.8519 31.8431C14.9145 32.3987 16.1024 32.6709 17.301 32.6335C18.4995 32.5961 19.6681 32.2504 20.694 31.6297C21.72 31.0089 22.5685 30.1342 23.1578 29.0899C23.7471 28.0456 24.0572 26.867 24.0582 25.6679Z" fill="black"/>
</svg>
