<svg width="46" height="18" viewBox="0 0 46 18" fill="none" xmlns="http://www.w3.org/2000/svg">
<path d="M2.97012 3.45584C2.81449 3.45131 2.65963 3.47929 2.51542 3.53798C2.37121 3.59667 2.24083 3.68478 2.13259 3.79669C-0.647831 6.70858 0.284094 7.26581 1.7303 9.66641C3.28363 12.5686 3.06451 14.3897 1.98838 15.7921C0.727207 17.4233 1.81496 18.4136 2.74989 17.43C5.52543 14.523 4.19609 10.9821 2.74989 8.57667C1.19168 5.67452 2.22222 6.37751 3.30322 4.98C4.24788 3.75292 3.87582 3.47531 2.97012 3.45584ZM12.9893 1.91423C12.8329 1.90903 12.6771 1.93667 12.532 1.99538C12.3869 2.05409 12.2557 2.14256 12.1469 2.25509C9.37134 5.16698 10.5877 7.26581 12.0388 9.66641C13.5921 12.5686 13.373 14.3897 12.292 15.7921C11.0357 17.4233 12.3283 18.1369 13.2632 17.1533C16.0388 14.2463 14.4404 10.9821 12.9893 8.57667C11.436 5.67452 11.9083 5.1942 12.9893 3.79669C13.934 2.5696 13.8999 1.93371 12.9893 1.91423ZM23.4429 0.000691057C23.2864 -0.00481996 23.1305 0.0226806 22.9854 0.0814084C22.8402 0.140136 22.7091 0.228772 22.6005 0.341545C19.8249 3.25343 20.8962 7.26581 22.3424 9.66641C23.9006 12.5686 23.6815 14.3897 22.6005 15.7921C21.3393 17.4233 22.565 18.1369 23.4999 17.1533C26.2803 14.2463 24.9461 10.9821 23.4999 8.57667C21.9466 5.67452 22.7004 3.33418 23.7766 1.93667C24.7212 0.709583 24.3486 0.0201686 23.4429 0.000691057ZM33.6022 1.97236C33.4466 1.96754 33.2916 1.99538 33.1474 2.05408C33.0031 2.11279 32.8728 2.20107 32.7647 2.31322C29.9843 5.22511 31.2047 7.26581 32.6509 9.66641C34.2042 12.5686 33.9851 14.3897 32.9089 15.7921C31.6478 17.4233 33.0783 17.8603 34.0132 16.8767C36.7888 13.9696 35.1828 10.9821 33.7366 8.57667C32.1784 5.67452 32.9322 5.17221 34.0132 3.7747C34.9579 2.54762 34.5128 1.99184 33.6071 1.97236H33.6022ZM43.9098 3.43385C43.7533 3.42833 43.5975 3.45583 43.4523 3.51456C43.3072 3.57329 43.176 3.66193 43.0674 3.7747C40.2919 6.68659 41.5083 7.26581 42.9593 9.66641C44.5127 12.5686 44.2936 14.3897 43.2126 15.7921C41.9563 17.4233 43.315 18.1369 44.2499 17.1533C47.0254 14.2463 45.701 11.5355 44.2499 9.13C42.6966 6.22785 42.8288 6.65418 43.9098 5.25667C44.8545 4.02958 44.8204 3.45332 43.9098 3.43385Z" fill="black"/>
</svg>
