<svg width="157" height="26" viewBox="0 0 157 26" fill="none" xmlns="http://www.w3.org/2000/svg">
<path d="M13.2682 0.0358887L16.1788 8.99381L25.5978 8.99382L17.9777 14.5301L20.8883 23.488L13.2682 17.9517L5.64816 23.488L8.55877 14.5301L0.938704 8.99382L10.3576 8.99381L13.2682 0.0358887Z" fill="#FFC163"/>
<path d="M45.9601 0.0358887L48.8707 8.99381L58.2897 8.99382L50.6696 14.5301L53.5802 23.488L45.9601 17.9517L38.3401 23.488L41.2507 14.5301L33.6306 8.99382L43.0495 8.99381L45.9601 0.0358887Z" fill="#FFC163"/>
<path d="M78.652 0.0358887L81.5626 8.99381L90.9815 8.99382L83.3615 14.5301L86.2721 23.488L78.652 17.9517L71.032 23.488L73.9426 14.5301L66.3225 8.99382L75.7414 8.99381L78.652 0.0358887Z" fill="#FFC163"/>
<path d="M111.344 0.0358887L114.255 8.99381L123.673 8.99382L116.053 14.5301L118.964 23.488L111.344 17.9517L103.724 23.488L106.634 14.5301L99.0144 8.99382L108.433 8.99381L111.344 0.0358887Z" fill="#FFC163"/>
<path d="M144.036 0.0358887L146.946 8.99381L156.365 8.99382L148.745 14.5301L151.656 23.488L144.036 17.9517L136.416 23.488L139.326 14.5301L131.706 8.99382L141.125 8.99381L144.036 0.0358887Z" fill="#FFC163"/>
</svg>
