<svg width="18" height="18" viewBox="0 0 18 18" fill="none" xmlns="http://www.w3.org/2000/svg">
<path d="M15.4847 13.3822H13.85C13.2315 13.3822 13.0452 12.8957 11.9365 11.8184C10.9676 10.9115 10.5584 10.7988 10.3133 10.7988C9.97432 10.7988 9.88187 10.8892 9.88187 11.3423V12.7704C9.88187 13.1567 9.75287 13.3829 8.71372 13.3829C7.70559 13.3171 6.72798 13.0197 5.86141 12.5151C4.99483 12.0106 4.26409 11.3133 3.72938 10.4807C2.45974 8.94611 1.57633 7.14499 1.14941 5.22058C1.14941 4.98256 1.24258 4.76681 1.70984 4.76681H3.34382C3.76378 4.76681 3.91499 4.94846 4.07982 5.36813C4.87316 7.63559 6.22692 9.60796 6.7766 9.60796C6.9873 9.60796 7.07903 9.51749 7.07903 9.00734V6.67168C7.00951 5.60615 6.42687 5.51637 6.42687 5.1308C6.43424 5.02908 6.48215 4.93416 6.56044 4.86619C6.63872 4.79823 6.7412 4.76258 6.84611 4.76681H9.41461C9.76577 4.76681 9.88187 4.93663 9.88187 5.34447V8.4972C9.88187 8.83753 10.0324 8.95027 10.1384 8.95027C10.3491 8.95027 10.5111 8.83753 10.8974 8.4631C11.7254 7.48247 12.4018 6.38993 12.9054 5.21989C12.957 5.07941 13.0544 4.95916 13.1829 4.87748C13.3114 4.79581 13.4639 4.75719 13.6171 4.76751H15.2518C15.742 4.76751 15.8459 5.00553 15.742 5.34516C15.1474 6.63856 14.4117 7.86631 13.5476 9.00734C13.3713 9.26833 13.301 9.40404 13.5476 9.71027C13.7095 9.94829 14.2829 10.4132 14.6677 10.8551C15.2281 11.398 15.6932 12.0258 16.0451 12.7134C16.1856 13.156 15.9512 13.3822 15.4847 13.3822Z" fill="#98C4ED"/>
</svg>
