<svg width="20" height="20" viewBox="0 0 20 20" fill="none" xmlns="http://www.w3.org/2000/svg">
<path d="M10.9548 2.17116C11.5416 2.1689 12.1285 2.1748 12.7152 2.18885L12.8712 2.19448C13.0514 2.20091 13.2291 2.20895 13.4438 2.21861C14.2995 2.25882 14.8834 2.39393 15.3957 2.59257C15.9264 2.79685 16.3736 3.0735 16.8207 3.52065C17.2296 3.92245 17.546 4.40847 17.748 4.94494C17.9466 5.45723 18.0817 6.0419 18.1219 6.8976C18.1316 7.11153 18.1396 7.29007 18.1461 7.47021L18.1509 7.62623C18.1652 8.21267 18.1714 8.79928 18.1694 9.38589L18.1702 9.98584V11.0394C18.1722 11.6263 18.166 12.2131 18.1517 12.7998L18.1469 12.9559C18.1404 13.136 18.1324 13.3137 18.1227 13.5285C18.0825 14.3842 17.9458 14.968 17.748 15.4803C17.5466 16.0174 17.2301 16.5038 16.8207 16.9054C16.4186 17.3142 15.9323 17.6306 15.3957 17.8327C14.8834 18.0313 14.2995 18.1664 13.4438 18.2067C13.2291 18.2163 13.0514 18.2243 12.8712 18.2308L12.7152 18.2356C12.1285 18.2499 11.5417 18.2561 10.9548 18.2541L10.3548 18.2549H9.30213C8.71526 18.2569 8.1284 18.2507 7.5417 18.2364L7.38568 18.2316C7.19477 18.2247 7.0039 18.2166 6.81308 18.2075C5.9574 18.1673 5.37354 18.0305 4.86045 17.8327C4.32379 17.6311 3.83768 17.3146 3.43619 16.9054C3.02688 16.5035 2.71016 16.0172 2.50813 15.4803C2.30948 14.968 2.17438 14.3842 2.13417 13.5285C2.12521 13.3376 2.11717 13.1468 2.11004 12.9559L2.10602 12.7998C2.09119 12.2131 2.08449 11.6263 2.08591 11.0394V9.38589C2.08367 8.79928 2.08957 8.21267 2.10361 7.62623L2.10924 7.47021C2.11567 7.29007 2.12371 7.11153 2.13336 6.8976C2.17357 6.0411 2.30868 5.45804 2.50732 4.94494C2.70948 4.40821 3.02681 3.92232 3.43699 3.52145C3.83821 3.1119 4.32401 2.79489 4.86045 2.59257C5.37354 2.39393 5.9566 2.25882 6.81308 2.21861L7.38568 2.19448L7.5417 2.19046C8.12812 2.17564 8.71472 2.16893 9.30132 2.17035L10.9548 2.17116ZM10.1281 6.1923C9.59527 6.18476 9.0663 6.28319 8.57188 6.48187C8.07747 6.68055 7.62747 6.97552 7.24804 7.34962C6.86861 7.72373 6.56732 8.16952 6.36167 8.66109C6.15602 9.15265 6.05012 9.68018 6.05012 10.213C6.05012 10.7459 6.15602 11.2734 6.36167 11.765C6.56732 12.2565 6.86861 12.7023 7.24804 13.0764C7.62747 13.4506 8.07747 13.7455 8.57188 13.9442C9.0663 14.1429 9.59527 14.2413 10.1281 14.2338C11.1945 14.2338 12.2173 13.8101 12.9714 13.056C13.7255 12.3019 14.1491 11.2791 14.1491 10.2126C14.1491 9.14616 13.7255 8.12337 12.9714 7.36926C12.2173 6.61515 11.1945 6.1923 10.1281 6.1923ZM10.1281 7.80075C10.4485 7.79485 10.767 7.85286 11.0648 7.97141C11.3626 8.08997 11.6338 8.26667 11.8626 8.49122C12.0913 8.71576 12.273 8.98364 12.3971 9.2792C12.5212 9.57476 12.5851 9.89208 12.5851 10.2126C12.5852 10.5332 12.5214 10.8505 12.3974 11.1461C12.2734 11.4417 12.0918 11.7097 11.8631 11.9343C11.6345 12.1589 11.3633 12.3357 11.0655 12.4543C10.7678 12.573 10.4493 12.6311 10.1289 12.6253C9.48899 12.6253 8.87532 12.3711 8.42286 11.9187C7.9704 11.4662 7.71622 10.8525 7.71622 10.2126C7.71622 9.57275 7.9704 8.95907 8.42286 8.50661C8.87532 8.05414 9.48899 7.79995 10.1289 7.79995L10.1281 7.80075ZM14.3502 4.98595C14.0907 4.99634 13.8454 5.10671 13.6655 5.29395C13.4856 5.48119 13.3851 5.73078 13.3851 5.99043C13.3851 6.25009 13.4856 6.49968 13.6655 6.68692C13.8454 6.87416 14.0907 6.98453 14.3502 6.99492C14.6168 6.99492 14.8725 6.889 15.061 6.70047C15.2495 6.51195 15.3554 6.25625 15.3554 5.98963C15.3554 5.72301 15.2495 5.46731 15.061 5.27879C14.8725 5.09026 14.6168 4.98435 14.3502 4.98435V4.98595Z" fill="#98C4ED"/>
</svg>
