<svg width="26" height="26" viewBox="0 0 26 26" fill="none" xmlns="http://www.w3.org/2000/svg">
<circle cx="13" cy="13" r="12.25" stroke="#333333" stroke-width="1.5"/>
<g clip-path="url(#clip0_9_31)">
<path d="M19.3192 16.1093V18.0052C19.3199 18.1812 19.2838 18.3554 19.2133 18.5166C19.1428 18.6779 19.0394 18.8226 18.9097 18.9416C18.78 19.0606 18.6269 19.1512 18.4602 19.2076C18.2935 19.264 18.1168 19.2849 17.9415 19.2691C15.9969 19.0578 14.129 18.3933 12.4878 17.329C10.961 16.3587 9.66642 15.0642 8.69618 13.5373C7.62818 11.8887 6.96354 10.0117 6.75611 8.05836C6.74031 7.88361 6.76108 7.70748 6.81709 7.5412C6.8731 7.37491 6.96311 7.22211 7.08141 7.09251C7.19971 6.96292 7.34369 6.85938 7.5042 6.78849C7.6647 6.71759 7.83821 6.68089 8.01368 6.68073H9.90951C10.2162 6.67771 10.5135 6.78631 10.7461 6.98629C10.9786 7.18627 11.1305 7.46399 11.1734 7.76767C11.2534 8.37438 11.4018 8.97009 11.6158 9.54343C11.7008 9.76962 11.7192 10.0154 11.6688 10.2518C11.6184 10.4881 11.5013 10.705 11.3314 10.8768L10.5288 11.6794C11.4284 13.2615 12.7384 14.5715 14.3205 15.4711L15.1231 14.6685C15.2949 14.4986 15.5118 14.3815 15.7481 14.3311C15.9844 14.2807 16.2303 14.2991 16.4565 14.3841C17.0298 14.5981 17.6255 14.7465 18.2322 14.8265C18.5392 14.8698 18.8195 15.0244 19.02 15.2609C19.2204 15.4975 19.3269 15.7994 19.3192 16.1093Z" stroke="#333333" stroke-width="1.5" stroke-linecap="round" stroke-linejoin="round"/>
</g>
<defs>
<clipPath id="clip0_9_31">
<rect width="15.1667" height="15.1667" fill="white" transform="translate(5.4165 5.41675)"/>
</clipPath>
</defs>
</svg>
