<svg width="16" height="16" viewBox="0 0 16 16" fill="none" xmlns="http://www.w3.org/2000/svg">
<circle cx="7.98875" cy="8.25413" r="7.19274" stroke="#333333" stroke-width="0.575419"/>
<g clip-path="url(#clip0_61_320)">
<path d="M11.625 10.0434V11.1343C11.6255 11.2355 11.6047 11.3358 11.5641 11.4286C11.5236 11.5214 11.4641 11.6046 11.3894 11.6731C11.3148 11.7416 11.2267 11.7937 11.1308 11.8261C11.0348 11.8586 10.9332 11.8706 10.8323 11.8615C9.71336 11.7399 8.63852 11.3576 7.69417 10.7452C6.81557 10.1869 6.07067 9.44197 5.51237 8.56337C4.89782 7.61473 4.51538 6.53466 4.39602 5.41067C4.38693 5.31012 4.39888 5.20877 4.43111 5.11309C4.46334 5.0174 4.51513 4.92948 4.5832 4.85491C4.65127 4.78034 4.73413 4.72076 4.82648 4.67996C4.91884 4.63917 5.01868 4.61805 5.11965 4.61796H6.21055C6.38702 4.61622 6.5581 4.67871 6.69191 4.79378C6.82572 4.90886 6.91311 5.06866 6.93781 5.2434C6.98386 5.59252 7.06925 5.9353 7.19235 6.26521C7.24128 6.39536 7.25187 6.53681 7.22287 6.6728C7.19386 6.80879 7.12649 6.93361 7.02872 7.03248L6.56691 7.49429C7.08456 8.40466 7.83833 9.15844 8.7487 9.67609L9.21052 9.21427C9.30938 9.11651 9.43421 9.04913 9.57019 9.02013C9.70618 8.99113 9.84763 9.00172 9.97778 9.05064C10.3077 9.17375 10.6505 9.25914 10.9996 9.30518C11.1762 9.3301 11.3376 9.41907 11.4529 9.55518C11.5682 9.69128 11.6295 9.86502 11.625 10.0434Z" stroke="#333333" stroke-width="0.575419" stroke-linecap="round" stroke-linejoin="round"/>
</g>
<defs>
<clipPath id="clip0_61_320">
<rect width="8.72719" height="8.72719" fill="white" transform="translate(3.625 3.89062)"/>
</clipPath>
</defs>
</svg>
