<svg width="42" height="42" viewBox="0 0 42 42" fill="none" xmlns="http://www.w3.org/2000/svg">
<path d="M29.5264 29.8569C29.5264 31.0522 29.0516 32.1985 28.2064 33.0437C27.3613 33.8888 26.2149 34.3637 25.0197 34.3637C23.0737 34.3637 21.1954 33.1034 20.5531 31.3683C20.5219 31.2886 20.5069 31.2035 20.509 31.118C20.511 31.0325 20.5301 30.9482 20.5651 30.8702C20.6 30.7921 20.6502 30.7218 20.7127 30.6634C20.7752 30.6049 20.8486 30.5595 20.9288 30.5298C21.0091 30.5 21.0944 30.4866 21.1799 30.4902C21.2653 30.4938 21.3492 30.5144 21.4266 30.5508C21.504 30.5872 21.5734 30.6387 21.6307 30.7022C21.688 30.7658 21.7321 30.8401 21.7603 30.9208C22.2158 32.1489 23.6161 33.076 25.0197 33.076C25.8734 33.076 26.6922 32.7369 27.2959 32.1332C27.8996 31.5294 28.2388 30.7106 28.2388 29.8569C28.2388 29.0031 27.8996 28.1843 27.2959 27.5806C26.6922 26.9769 25.8734 26.6378 25.0197 26.6378H6.99256C6.82181 26.6378 6.65805 26.5699 6.53731 26.4492C6.41657 26.3284 6.34874 26.1647 6.34874 25.9939C6.34874 25.8232 6.41657 25.6594 6.53731 25.5387C6.65805 25.4179 6.82181 25.3501 6.99256 25.3501H25.0197C26.2149 25.3501 27.3613 25.8249 28.2064 26.6701C29.0516 27.5153 29.5264 28.6616 29.5264 29.8569ZM24.3758 11.8298C24.3758 10.6345 23.901 9.48819 23.0558 8.643C22.2107 7.79782 21.0643 7.323 19.8691 7.323C17.9231 7.323 16.0447 8.58329 15.4025 10.3184C15.3468 10.4776 15.3558 10.6524 15.4276 10.805C15.4994 10.9577 15.6283 11.0761 15.7865 11.1347C15.9446 11.1934 16.1195 11.1876 16.2735 11.1186C16.4274 11.0496 16.5482 10.9229 16.6097 10.7659C17.0652 9.53776 18.4655 8.61065 19.8691 8.61065C20.7228 8.61065 21.5416 8.94981 22.1453 9.55351C22.749 10.1572 23.0882 10.976 23.0882 11.8298C23.0882 12.6835 22.749 13.5023 22.1453 14.106C21.5416 14.7097 20.7228 15.0489 19.8691 15.0489H4.41726C4.24651 15.0489 4.08275 15.1167 3.96201 15.2375C3.84127 15.3582 3.77344 15.522 3.77344 15.6927C3.77344 15.8635 3.84127 16.0272 3.96201 16.148C4.08275 16.2687 4.24651 16.3366 4.41726 16.3366H19.8691C21.0643 16.3366 22.2107 15.8617 23.0558 15.0165C23.901 14.1714 24.3758 13.025 24.3758 11.8298ZM34.0332 12.4736C32.0873 12.4736 30.2089 13.7339 29.5667 15.469C29.5355 15.5486 29.5205 15.6337 29.5225 15.7192C29.5246 15.8048 29.5436 15.889 29.5786 15.9671C29.6136 16.0451 29.6638 16.1155 29.7262 16.1739C29.7887 16.2324 29.8622 16.2778 29.9424 16.3075C30.0226 16.3372 30.1079 16.3507 30.1934 16.3471C30.2789 16.3434 30.3628 16.3228 30.4402 16.2864C30.5176 16.25 30.587 16.1985 30.6443 16.135C30.7015 16.0715 30.7456 15.9972 30.7739 15.9165C31.2294 14.6884 32.6297 13.7613 34.0332 13.7613C34.887 13.7613 35.7058 14.1004 36.3095 14.7041C36.9132 15.3078 37.2524 16.1266 37.2524 16.9804C37.2524 17.8341 36.9132 18.6529 36.3095 19.2566C35.7058 19.8603 34.887 20.1995 34.0332 20.1995H5.70491C5.53416 20.1995 5.3704 20.2673 5.24966 20.3881C5.12892 20.5088 5.06109 20.6726 5.06109 20.8433C5.06109 21.0141 5.12892 21.1778 5.24966 21.2986C5.3704 21.4193 5.53416 21.4872 5.70491 21.4872H34.0332C35.2285 21.4872 36.3748 21.0123 37.22 20.1671C38.0652 19.322 38.54 18.1756 38.54 16.9804C38.54 15.7851 38.0652 14.6388 37.22 13.7936C36.3748 12.9484 35.2285 12.4736 34.0332 12.4736Z" fill="black"/>
</svg>
