<svg width="42" height="42" viewBox="0 0 42 42" fill="none" xmlns="http://www.w3.org/2000/svg">
<path d="M32.1017 18.2681C32.1017 18.4388 32.0339 18.6026 31.9131 18.7233C31.7924 18.8441 31.6286 18.9119 31.4579 18.9119H25.0196C24.8489 18.9119 24.6851 18.8441 24.5644 18.7233C24.4436 18.6026 24.3758 18.4388 24.3758 18.2681C24.3758 18.0973 24.4436 17.9336 24.5644 17.8128C24.6851 17.6921 24.8489 17.6243 25.0196 17.6243H31.4579C31.6286 17.6243 31.7924 17.6921 31.9131 17.8128C32.0339 17.9336 32.1017 18.0973 32.1017 18.2681ZM31.4579 22.7749H25.0196C24.8489 22.7749 24.6851 22.8427 24.5644 22.9634C24.4436 23.0842 24.3758 23.2479 24.3758 23.4187C24.3758 23.5894 24.4436 23.7532 24.5644 23.8739C24.6851 23.9947 24.8489 24.0625 25.0196 24.0625H31.4579C31.6286 24.0625 31.7924 23.9947 31.9131 23.8739C32.0339 23.7532 32.1017 23.5894 32.1017 23.4187C32.1017 23.2479 32.0339 23.0842 31.9131 22.9634C31.7924 22.8427 31.6286 22.7749 31.4579 22.7749ZM37.2523 9.25453V32.4322C37.2523 32.9445 37.0488 33.4358 36.6866 33.798C36.3244 34.1602 35.8331 34.3637 35.3208 34.3637H6.99251C6.48025 34.3637 5.98897 34.1602 5.62675 33.798C5.26453 33.4358 5.06104 32.9445 5.06104 32.4322V9.25453C5.06104 8.74228 5.26453 8.251 5.62675 7.88878C5.98897 7.52655 6.48025 7.32306 6.99251 7.32306H35.3208C35.8331 7.32306 36.3244 7.52655 36.6866 7.88878C37.0488 8.251 37.2523 8.74228 37.2523 9.25453ZM35.9646 9.25453C35.9646 9.08378 35.8968 8.92002 35.7761 8.79928C35.6553 8.67854 35.4916 8.61071 35.3208 8.61071H6.99251C6.82176 8.61071 6.658 8.67854 6.53726 8.79928C6.41652 8.92002 6.34869 9.08378 6.34869 9.25453V32.4322C6.34869 32.603 6.41652 32.7668 6.53726 32.8875C6.658 33.0082 6.82176 33.0761 6.99251 33.0761H35.3208C35.4916 33.0761 35.6553 33.0082 35.7761 32.8875C35.8968 32.7668 35.9646 32.603 35.9646 32.4322V9.25453ZM21.7796 27.1207C21.8044 27.2037 21.8122 27.2908 21.8026 27.3769C21.793 27.4629 21.7661 27.5462 21.7236 27.6216C21.681 27.697 21.6237 27.7631 21.555 27.8159C21.4863 27.8686 21.4077 27.907 21.3239 27.9287C21.24 27.9503 21.1526 27.9549 21.067 27.942C20.9814 27.9291 20.8992 27.8991 20.8254 27.8537C20.7517 27.8083 20.6878 27.7485 20.6377 27.6779C20.5876 27.6072 20.5522 27.5272 20.5338 27.4426C20.0396 25.5111 18.0985 24.0625 16.0061 24.0625C13.9136 24.0625 11.9822 25.5111 11.4784 27.4426C11.4427 27.5807 11.3622 27.7031 11.2494 27.7905C11.1367 27.8779 10.9981 27.9254 10.8555 27.9255C10.8011 27.9255 10.747 27.9185 10.6945 27.9045C10.5294 27.8617 10.388 27.7552 10.3014 27.6082C10.2147 27.4612 10.19 27.2859 10.2326 27.1207C10.4621 26.2809 10.8766 25.5032 11.4455 24.8442C12.0145 24.1853 12.7236 23.662 13.5209 23.3125C12.7127 22.7782 12.0982 21.9978 11.7684 21.0869C11.4387 20.176 11.4112 19.183 11.6901 18.2553C11.969 17.3275 12.5395 16.5143 13.3169 15.9363C14.0943 15.3582 15.0373 15.046 16.0061 15.046C16.9748 15.046 17.9178 15.3582 18.6952 15.9363C19.4727 16.5143 20.0431 17.3275 20.322 18.2553C20.6009 19.183 20.5735 20.176 20.2437 21.0869C19.9139 21.9978 19.2994 22.7782 18.4912 23.3125C19.2891 23.6612 19.9986 24.1843 20.5676 24.8433C21.1367 25.5024 21.5508 26.2806 21.7796 27.1207ZM16.0061 22.7749C16.6427 22.7749 17.2651 22.5861 17.7945 22.2323C18.3239 21.8786 18.7365 21.3759 18.9802 20.7876C19.2238 20.1994 19.2875 19.5522 19.1633 18.9277C19.0391 18.3033 18.7325 17.7297 18.2823 17.2795C17.8321 16.8293 17.2585 16.5227 16.6341 16.3985C16.0096 16.2743 15.3624 16.338 14.7742 16.5817C14.1859 16.8253 13.6832 17.2379 13.3295 17.7673C12.9757 18.2967 12.7869 18.9191 12.7869 19.5557C12.7869 20.4095 13.1261 21.2283 13.7298 21.832C14.3335 22.4357 15.1523 22.7749 16.0061 22.7749Z" fill="black"/>
</svg>
