<svg width="20" height="19" viewBox="0 0 20 19" fill="none" xmlns="http://www.w3.org/2000/svg">
<path d="M10.4469 1.74463C14.8888 1.74463 18.4894 5.34528 18.4894 9.78718C18.4894 14.2291 14.8888 17.8297 10.4469 17.8297C9.02556 17.832 7.62928 17.4559 6.40145 16.74L2.40753 17.8297L3.49488 13.8342C2.77836 12.606 2.40193 11.2091 2.40431 9.78718C2.40431 5.34528 6.00496 1.74463 10.4469 1.74463ZM7.70596 6.00718L7.5451 6.01361C7.44097 6.01995 7.3392 6.04731 7.24592 6.09404C7.15868 6.14344 7.07904 6.20521 7.00947 6.27741C6.91296 6.36829 6.85827 6.44711 6.79956 6.52351C6.50208 6.91028 6.34192 7.38512 6.34435 7.87305C6.34596 8.26714 6.44891 8.65076 6.60976 9.00946C6.9387 9.7349 7.47996 10.503 8.19414 11.2147C8.36625 11.386 8.53514 11.5581 8.7169 11.7182C9.60431 12.4995 10.6618 13.0629 11.8052 13.3637L12.2621 13.4337C12.4108 13.4417 12.5596 13.4305 12.7092 13.4232C12.9435 13.4111 13.1722 13.3477 13.3792 13.2374C13.4845 13.1832 13.5873 13.1241 13.6872 13.0605C13.6872 13.0605 13.7218 13.038 13.7877 12.9881C13.8963 12.9077 13.9631 12.8506 14.0531 12.7565C14.1199 12.6873 14.1778 12.6061 14.222 12.5136C14.2848 12.3825 14.3475 12.1324 14.3732 11.9241C14.3925 11.7648 14.3869 11.678 14.3845 11.6241C14.3813 11.538 14.3097 11.4488 14.2317 11.411L13.7636 11.2011C13.7636 11.2011 13.0639 10.8962 12.636 10.7016C12.5913 10.6821 12.5433 10.6709 12.4945 10.6686C12.4395 10.663 12.3839 10.6692 12.3314 10.6868C12.279 10.7044 12.2309 10.7331 12.1905 10.7708C12.1865 10.7692 12.1326 10.815 11.5511 11.5195C11.5177 11.5644 11.4718 11.5983 11.419 11.6169C11.3663 11.6355 11.3093 11.638 11.2551 11.6241C11.2027 11.61 11.1514 11.5923 11.1015 11.571C11.0018 11.5292 10.9672 11.5131 10.8988 11.4842C10.4373 11.2827 10.0099 11.0106 9.63215 10.6775C9.53081 10.589 9.43671 10.4925 9.3402 10.3992C9.0238 10.0962 8.74805 9.7534 8.51986 9.37942L8.47241 9.30302C8.43833 9.25168 8.41077 9.19629 8.39038 9.13814C8.35981 9.01992 8.43944 8.92502 8.43944 8.92502C8.43944 8.92502 8.63487 8.71108 8.72575 8.59527C8.81422 8.48268 8.88901 8.3733 8.93727 8.29528C9.03217 8.14248 9.06193 7.98565 9.01207 7.8642C8.78687 7.31409 8.55364 6.7664 8.31397 6.22272C8.26652 6.11495 8.12578 6.03774 7.9979 6.02246C7.95447 6.01763 7.91104 6.01281 7.86761 6.00959C7.7596 6.00423 7.65137 6.0053 7.5435 6.01281L7.70515 6.00637L7.70596 6.00718Z" fill="#98C4ED"/>
</svg>
